<svg id="Capa_1" data-name="Capa 1" xmlns="http://www.w3.org/2000/svg" width="187.12" height="94.13" viewBox="0 0 187.12 94.13"><defs><style>.cls-1{fill:#fff;}.cls-2{stroke:#000;stroke-miterlimit:10;}</style></defs><path d="M79.14,99.92c-2.86-8,8.62-13.41,13.61-7.16,10.4-9.16,24.92,6.73,0,20.34C92.75,113.1,80.5,105.76,79.14,99.92Zm100-4.48a20,20,0,0,1-6.18,3.39c3.75,2.45,5.49,5.49,2.46,8.77C127.48,151.29,44,153,0,104.23,1.79,98,28.13,77.61,69.08,68.65c3.84-.77,21.87-3.94,22.5-17.79-.09-5.82,9.08-5.92,9,0,0,9.57-5.66,15.76-11.9,19.82a25.92,25.92,0,0,1,3.74,2c11.36-11.11,34.74,5.07,37.41-17.12.33-5.55,9.66-5.05,8.95.88-.88,9.22-5.73,16.37-13.84,19.2,20.38,20.88-14.37,48.54-28.23,56.34,31.8-2.76,58.45-20.25,68.46-27.75a156.5,156.5,0,0,0-27.45-16.48c-4.78-2.09-2.32-9.57,2.77-8.2,1.63-.75,3.74.42,8.78-1.49,4.7-1.9,7.29-5.71,7.86-11.73.2-5.63,9.67-5,9,.88-.9,8.84-5.11,15.51-12.53,18.75,6.92,3.33,7.94,7.8,16.66,4.44,10.08-2.92,4.52-15.68,12.73-15.76C192.28,77.19,183.5,92.38,179.12,95.44Zm-90.67,37.1c.13,0,.3,0,.47,0-1.81-.76-45.85-30.32-30.65-40.23a4.56,4.56,0,0,1,5.4,3.38c1.94,8.57,17.75,21.3,28.72,28.41,12.86-8.91,29.41-20.59,29.59-33.15.37-13.3-18.2-19.15-26.21-9.1a4.44,4.44,0,0,1-3.43,1.58c-5.23-1.51-8-7.59-14.75-6.81C51.13,78.46,20.48,97,11.73,104.2,22.66,112.4,53.13,132.54,88.45,132.54Z" transform="translate(0.04 -46.46)"/><circle id="cercle" class="cls-1" cx="81.63" cy="47.06" r="8.5"/><rect class="cls-2" x="77.88" y="45.81" width="7.5" height="2.5" rx="0.5"/><rect class="cls-2" x="77.84" y="92.27" width="7.5" height="2.5" rx="0.5" transform="translate(175.15 -34.53) rotate(90)"/></svg>