<?xml version="1.0" encoding="iso-8859-1"?>
<!-- Generator: Adobe Illustrator 19.0.0, SVG Export Plug-In . SVG Version: 6.00 Build 0)  -->
<svg version="1.1" id="Layer_1" xmlns="http://www.w3.org/2000/svg" xmlns:xlink="http://www.w3.org/1999/xlink" x="0px" y="0px"
	 viewBox="0 0 512.001 512.001" style="enable-background:new 0 0 512.001 512.001;" xml:space="preserve">
<path style="fill:#FECC85;" d="M256.002,146.131c-133.762,0-242.196,152.749-242.196,152.749S122.24,451.631,256.002,451.631
	S498.197,298.88,498.197,298.88S389.762,146.131,256.002,146.131z M256.002,447.738c-82.211,0-148.858-66.645-148.858-148.858
	s66.645-148.856,148.858-148.856s148.856,66.645,148.856,148.858S338.213,447.738,256.002,447.738z"/>
<path style="fill:#DE5E88;" d="M296.898,230.721c-22.915,0-40.894,25.55-40.894,25.55s-16.958-25.55-40.903-25.55
	c-23.29,0-42.309,19.21-43.554,42.467c-0.701,13.139,3.535,23.14,9.503,32.196c11.925,18.095,64.063,61.658,75.031,61.658
	c11.195,0,62.869-43.403,74.873-61.658c5.98-9.098,10.204-19.057,9.5-32.196C339.209,249.931,320.19,230.721,296.898,230.721"/>
<path style="fill:#BBDCE3;" d="M256.002,150.024c-82.211,0-148.858,66.645-148.858,148.858S173.789,447.74,256.002,447.74
	s148.856-66.645,148.856-148.858S338.213,150.024,256.002,150.024z M330.954,305.385c-12.006,18.253-63.679,61.658-74.873,61.658
	c-10.967,0-63.106-43.563-75.031-61.658c-5.968-9.057-10.204-19.057-9.503-32.196c1.245-23.259,20.263-42.469,43.554-42.469
	c23.945,0,40.903,25.55,40.903,25.55s17.979-25.55,40.894-25.55c23.292,0,42.311,19.21,43.556,42.469
	C341.159,286.328,336.934,296.287,330.954,305.385z"/>
<path d="M509.453,290.891c-1.068-1.505-24.991-34.956-64.337-70.94l61.271-49.644c5.923-4.8,6.834-13.492,2.036-19.416
	c-4.798-5.925-13.494-6.834-19.414-2.035l-65.142,52.78c-18.55-15.027-37.288-27.705-56.019-37.934l19.552-36.24
	c3.619-6.709,1.115-15.084-5.595-18.703c-6.706-3.619-15.082-1.115-18.703,5.595l-20.087,37.231
	c-24.722-10.653-49.277-16.961-73.209-18.725V60.368c0-7.624-6.182-13.804-13.804-13.804c-7.624,0-13.804,6.18-13.804,13.804v72.492
	c-24.105,1.777-48.841,8.162-73.745,18.955l-20.209-37.461c-3.619-6.709-11.993-9.213-18.703-5.595
	c-6.71,3.619-9.214,11.993-5.595,18.703l19.7,36.516c-18.561,10.181-37.128,22.769-55.508,37.658l-65.142-52.78
	c-5.923-4.798-14.616-3.889-19.416,2.035c-4.8,5.923-3.889,14.616,2.035,19.416l61.271,49.644
	c-39.345,35.983-63.269,69.435-64.337,70.94c-3.397,4.786-3.397,11.195,0,15.981c1.146,1.614,28.572,39.973,73.126,78.793
	c59.897,52.187,122.253,79.772,180.326,79.772c58.074,0,120.429-27.585,180.326-79.772c44.555-38.82,71.981-77.179,73.126-78.793
	C512.85,302.086,512.85,295.676,509.453,290.891z M31.145,298.88c12.581-15.98,43.828-53.028,86.126-84.852
	c-0.048,0.079-0.092,0.16-0.141,0.239c-0.835,1.367-1.651,2.747-2.447,4.14c-0.2,0.351-0.395,0.705-0.592,1.059
	c-0.613,1.091-1.213,2.188-1.801,3.294c-0.231,0.432-0.46,0.864-0.686,1.299c-0.698,1.342-1.382,2.692-2.043,4.054
	c-0.051,0.105-0.105,0.208-0.156,0.313c-0.696,1.441-1.364,2.899-2.018,4.364c-0.204,0.457-0.403,0.917-0.603,1.376
	c-0.487,1.118-0.961,2.242-1.423,3.374c-0.173,0.422-0.349,0.842-0.518,1.266c-0.592,1.483-1.164,2.976-1.713,4.481
	c-0.131,0.359-0.254,0.723-0.382,1.084c-0.429,1.202-0.843,2.409-1.245,3.624c-0.164,0.498-0.327,0.997-0.487,1.498
	c-0.413,1.291-0.809,2.588-1.19,3.893c-0.084,0.289-0.175,0.574-0.258,0.864c-0.444,1.557-0.861,3.124-1.26,4.699
	c-0.119,0.471-0.231,0.944-0.346,1.416c-0.294,1.204-0.573,2.413-0.839,3.626c-0.105,0.476-0.211,0.952-0.312,1.431
	c-0.338,1.61-0.657,3.225-0.947,4.851c-0.043,0.246-0.08,0.493-0.123,0.739c-0.246,1.418-0.472,2.842-0.681,4.271
	c-0.073,0.504-0.144,1.009-0.213,1.514c-0.182,1.336-0.348,2.677-0.497,4.023c-0.04,0.363-0.087,0.723-0.124,1.086
	c-0.174,1.673-0.322,3.353-0.444,5.04c-0.03,0.42-0.052,0.841-0.08,1.262c-0.087,1.335-0.157,2.674-0.213,4.017
	c-0.019,0.49-0.04,0.98-0.057,1.472c-0.054,1.724-0.091,3.451-0.091,5.189c0,1.738,0.037,3.465,0.091,5.189
	c0.015,0.491,0.036,0.98,0.057,1.47c0.054,1.343,0.126,2.682,0.213,4.017c0.028,0.42,0.05,0.842,0.08,1.262
	c0.123,1.688,0.271,3.37,0.444,5.043c0.037,0.359,0.083,0.715,0.123,1.073c0.15,1.353,0.316,2.7,0.5,4.043
	c0.068,0.5,0.137,0.998,0.21,1.496c0.21,1.441,0.438,2.877,0.686,4.307c0.041,0.235,0.076,0.471,0.117,0.705
	c0.291,1.632,0.612,3.254,0.95,4.867c0.098,0.468,0.203,0.933,0.305,1.4c0.269,1.229,0.554,2.453,0.85,3.671
	c0.112,0.46,0.221,0.921,0.337,1.379c0.4,1.583,0.82,3.158,1.267,4.722c0.079,0.273,0.163,0.543,0.243,0.814
	c0.387,1.324,0.788,2.641,1.208,3.951c0.156,0.487,0.315,0.973,0.475,1.459c0.407,1.235,0.83,2.463,1.266,3.686
	c0.123,0.342,0.239,0.687,0.363,1.03c0.552,1.513,1.128,3.015,1.723,4.507c0.163,0.409,0.334,0.814,0.5,1.222
	c0.469,1.15,0.951,2.293,1.447,3.429c0.195,0.446,0.387,0.892,0.584,1.335c0.658,1.474,1.331,2.943,2.032,4.394
	c0.039,0.08,0.08,0.159,0.119,0.239c0.672,1.389,1.369,2.762,2.08,4.129c0.221,0.424,0.446,0.845,0.67,1.267
	c0.595,1.118,1.201,2.228,1.821,3.331c0.193,0.345,0.382,0.69,0.578,1.034c0.798,1.396,1.615,2.78,2.453,4.151
	c0.047,0.077,0.091,0.157,0.138,0.235C74.968,351.905,43.72,314.856,31.145,298.88z M256.002,433.934
	c-74.468,0-135.052-60.585-135.052-135.054s60.584-135.052,135.052-135.052s135.054,60.584,135.054,135.052
	S330.47,433.934,256.002,433.934z M394.734,383.732c0.048-0.077,0.092-0.159,0.139-0.236c0.839-1.372,1.658-2.759,2.457-4.158
	c0.188-0.329,0.37-0.661,0.555-0.993c0.632-1.125,1.253-2.26,1.859-3.401c0.211-0.398,0.422-0.794,0.631-1.194
	c1.512-2.903,2.939-5.857,4.277-8.86c0.174-0.391,0.344-0.783,0.515-1.175c0.53-1.215,1.045-2.436,1.546-3.666
	c0.138-0.338,0.28-0.675,0.415-1.015c0.613-1.535,1.206-3.081,1.774-4.64c0.092-0.253,0.178-0.507,0.268-0.759
	c0.475-1.324,0.932-2.656,1.374-3.996c0.138-0.418,0.275-0.837,0.409-1.256c0.457-1.425,0.896-2.856,1.314-4.297
	c0.048-0.168,0.102-0.334,0.15-0.502c0.46-1.608,0.892-3.227,1.303-4.855c0.099-0.393,0.193-0.79,0.29-1.184
	c0.318-1.296,0.618-2.599,0.906-3.908c0.09-0.409,0.181-0.816,0.268-1.224c0.346-1.648,0.674-3.303,0.97-4.97
	c0.03-0.168,0.055-0.338,0.084-0.507c0.261-1.496,0.498-3.001,0.719-4.511c0.068-0.468,0.133-0.936,0.197-1.407
	c0.189-1.38,0.36-2.765,0.514-4.155c0.036-0.33,0.079-0.657,0.113-0.987c0.175-1.684,0.324-3.376,0.447-5.074
	c0.029-0.409,0.051-0.819,0.079-1.227c0.087-1.343,0.159-2.69,0.214-4.043c0.019-0.489,0.04-0.976,0.055-1.465
	c0.054-1.724,0.091-3.452,0.091-5.189s-0.037-3.465-0.091-5.189c-0.015-0.489-0.036-0.977-0.055-1.466
	c-0.055-1.351-0.126-2.699-0.214-4.042c-0.026-0.409-0.048-0.82-0.079-1.229c-0.124-1.698-0.272-3.39-0.447-5.074
	c-0.035-0.33-0.077-0.658-0.113-0.988c-0.153-1.389-0.324-2.773-0.514-4.152c-0.065-0.471-0.13-0.94-0.197-1.409
	c-0.219-1.507-0.457-3.009-0.718-4.503c-0.03-0.171-0.055-0.344-0.086-0.514c-0.295-1.665-0.623-3.32-0.969-4.967
	c-0.087-0.411-0.179-0.82-0.269-1.23c-0.286-1.306-0.587-2.606-0.903-3.9c-0.097-0.398-0.19-0.795-0.291-1.191
	c-0.411-1.626-0.842-3.244-1.302-4.849c-0.05-0.173-0.104-0.344-0.153-0.516c-0.417-1.436-0.854-2.862-1.309-4.282
	c-0.135-0.424-0.273-0.846-0.413-1.267c-0.439-1.333-0.895-2.659-1.367-3.977c-0.092-0.258-0.181-0.519-0.273-0.777
	c-0.566-1.554-1.158-3.098-1.77-4.63c-0.138-0.345-0.282-0.687-0.422-1.033c-0.497-1.222-1.009-2.435-1.536-3.642
	c-0.174-0.399-0.346-0.798-0.523-1.194c-0.671-1.505-1.357-3-2.071-4.479c-0.006-0.012-0.012-0.023-0.018-0.036
	c-0.704-1.456-1.434-2.895-2.18-4.326c-0.213-0.407-0.428-0.812-0.643-1.216c-0.6-1.131-1.215-2.253-1.841-3.368
	c-0.191-0.34-0.377-0.682-0.57-1.02c-0.796-1.393-1.611-2.775-2.447-4.141c-0.05-0.081-0.095-0.164-0.145-0.246
	c42.303,31.828,73.547,68.876,86.125,84.85C468.276,314.862,437.03,351.907,394.734,383.732z"/>
<path d="M305.317,217.545c-2.75-0.414-5.562-0.628-8.421-0.628c-5.391,0-10.491,0.959-15.238,2.543
	c-10.444,3.484-19.182,9.996-25.554,15.984c-6.879-6.536-16.605-13.69-28.462-16.856c-3.952-1.056-8.142-1.669-12.541-1.669
	c-2.857,0-5.669,0.214-8.419,0.628c-26.581,4.005-47.409,26.685-48.919,54.908c-0.062,1.176-0.094,2.33-0.094,3.462
	c-0.007,11.328,2.96,20.528,6.476,27.735c1.757,3.603,3.653,6.709,5.38,9.33c7.545,11.448,25.92,28.507,40.601,40.653
	c32.889,27.212,42.046,27.212,45.957,27.212c0.247,0,0.516,0,0.809-0.007c4.401-0.099,14.464-1.691,45.141-27.16
	c2.732-2.268,5.593-4.71,8.492-7.257c12.558-11.039,25.784-24.055,31.965-33.452c0,0,0.001-0.001,0.001-0.003
	c2.072-3.153,4.384-7,6.411-11.567c3.041-6.851,5.442-15.32,5.432-25.494c-0.001-1.131-0.032-2.282-0.095-3.455
	C352.729,244.229,331.901,221.549,305.317,217.545z M326.718,277.026c-0.177,7.088-2.396,13.317-7.298,20.774
	c-9.725,14.787-50.497,49.012-63.306,54.939c-10.083-4.692-37.229-26.581-53.265-42.95c-4.513-4.605-8.146-8.774-10.272-12
	c-2.071-3.143-3.671-6.111-4.837-9.033c-1.749-4.384-2.526-8.664-2.46-13.277c0.007-0.512,0.025-1.03,0.052-1.55
	c0.705-13.172,9.653-24.349,21.323-28.078c2.693-0.86,5.531-1.324,8.447-1.324c13.369,0,25.779,14.024,29.402,19.38
	c2.511,3.784,6.738,6.07,11.278,6.147c1.708,0.036,3.378-0.251,4.939-0.82c2.603-0.944,4.892-2.666,6.543-4.978
	c3.92-5.487,16.885-19.729,29.632-19.729c1.944,0,3.853,0.206,5.708,0.599c12.984,2.746,23.304,14.617,24.065,28.805
	c0.029,0.527,0.047,1.048,0.055,1.564C326.732,276.008,326.73,276.519,326.718,277.026z"/>
<path d="M382.972,88.236c0.345,0.842,0.774,1.643,1.27,2.388c0.511,0.759,1.077,1.463,1.726,2.098
	c0.635,0.635,1.34,1.215,2.086,1.712c0.759,0.497,1.56,0.925,2.387,1.27c0.83,0.345,1.698,0.607,2.581,0.787
	c0.897,0.179,1.795,0.276,2.706,0.276c0.897,0,1.795-0.097,2.692-0.276c0.883-0.179,1.753-0.442,2.581-0.787
	c0.828-0.345,1.629-0.773,2.387-1.27c0.745-0.497,1.465-1.077,2.1-1.712s1.215-1.339,1.712-2.098
	c0.496-0.745,0.925-1.546,1.27-2.388c0.345-0.828,0.606-1.698,0.785-2.581s0.276-1.795,0.276-2.692s-0.097-1.808-0.276-2.706
	c-0.179-0.87-0.44-1.739-0.785-2.581c-0.345-0.828-0.774-1.629-1.27-2.374c-0.497-0.759-1.077-1.463-1.712-2.098
	s-1.353-1.215-2.1-1.726c-0.759-0.497-1.56-0.925-2.387-1.27c-0.83-0.345-1.698-0.607-2.581-0.787c-1.781-0.359-3.617-0.359-5.397,0
	c-0.883,0.179-1.753,0.442-2.581,0.787c-0.828,0.345-1.629,0.773-2.387,1.27c-0.745,0.511-1.451,1.091-2.086,1.726
	c-0.649,0.635-1.215,1.339-1.726,2.098c-0.496,0.745-0.925,1.546-1.27,2.374c-0.345,0.842-0.606,1.712-0.785,2.581
	c-0.179,0.897-0.276,1.808-0.276,2.706s0.097,1.808,0.276,2.692S382.626,87.408,382.972,88.236z"/>
<path d="M115.627,96.767c0.897,0,1.808-0.097,2.692-0.276s1.753-0.442,2.581-0.787c0.828-0.345,1.643-0.773,2.388-1.27
	c0.759-0.497,1.463-1.077,2.098-1.712c2.568-2.568,4.045-6.129,4.045-9.76c0-0.897-0.097-1.808-0.276-2.706
	c-0.179-0.87-0.442-1.739-0.787-2.581c-0.345-0.828-0.773-1.629-1.27-2.374c-0.497-0.759-1.077-1.463-1.712-2.098
	c-0.635-0.635-1.339-1.215-2.098-1.726c-0.745-0.497-1.56-0.925-2.388-1.27c-0.828-0.345-1.698-0.607-2.581-0.787
	c-1.781-0.359-3.617-0.359-5.397,0c-0.87,0.179-1.739,0.442-2.581,0.787c-0.828,0.345-1.629,0.773-2.374,1.27
	c-0.759,0.511-1.463,1.091-2.098,1.726c-0.649,0.635-1.215,1.339-1.726,2.098c-0.497,0.745-0.925,1.546-1.27,2.374
	c-0.345,0.842-0.607,1.712-0.787,2.581c-0.179,0.897-0.262,1.808-0.262,2.706c0,3.631,1.477,7.192,4.045,9.76
	C108.435,95.29,111.982,96.767,115.627,96.767z"/>
<g>
</g>
<g>
</g>
<g>
</g>
<g>
</g>
<g>
</g>
<g>
</g>
<g>
</g>
<g>
</g>
<g>
</g>
<g>
</g>
<g>
</g>
<g>
</g>
<g>
</g>
<g>
</g>
<g>
</g>
</svg>
