<?xml version="1.0" standalone="no"?><svg xmlns="http://www.w3.org/2000/svg" viewBox="0 0 1440 320"><path fill="#8abbbc" fill-opacity="1" d="M0,192L30,165.3C60,139,120,85,180,80C240,75,300,117,360,117.3C420,117,480,75,540,69.3C600,64,660,96,720,96C780,96,840,64,900,48C960,32,1020,32,1080,48C1140,64,1200,96,1260,96C1320,96,1380,64,1410,48L1440,32L1440,0L1410,0C1380,0,1320,0,1260,0C1200,0,1140,0,1080,0C1020,0,960,0,900,0C840,0,780,0,720,0C660,0,600,0,540,0C480,0,420,0,360,0C300,0,240,0,180,0C120,0,60,0,30,0L0,0Z"></path></svg>