<?xml version="1.0" standalone="no"?><svg xmlns="http://www.w3.org/2000/svg" viewBox="0 0 1440 320"><path fill="#8abbbc" fill-opacity="1" d="M0,64L30,53.3C60,43,120,21,180,16C240,11,300,21,360,21.3C420,21,480,11,540,21.3C600,32,660,64,720,90.7C780,117,840,139,900,122.7C960,107,1020,53,1080,37.3C1140,21,1200,43,1260,69.3C1320,96,1380,128,1410,144L1440,160L1440,0L1410,0C1380,0,1320,0,1260,0C1200,0,1140,0,1080,0C1020,0,960,0,900,0C840,0,780,0,720,0C660,0,600,0,540,0C480,0,420,0,360,0C300,0,240,0,180,0C120,0,60,0,30,0L0,0Z"></path></svg>