<?xml version="1.0" standalone="no"?><svg xmlns="http://www.w3.org/2000/svg" viewBox="0 0 1440 320"><path fill="#8abbbc" fill-opacity="1" d="M0,160L30,160C60,160,120,160,180,170.7C240,181,300,203,360,181.3C420,160,480,96,540,58.7C600,21,660,11,720,32C780,53,840,107,900,112C960,117,1020,75,1080,80C1140,85,1200,139,1260,149.3C1320,160,1380,128,1410,112L1440,96L1440,0L1410,0C1380,0,1320,0,1260,0C1200,0,1140,0,1080,0C1020,0,960,0,900,0C840,0,780,0,720,0C660,0,600,0,540,0C480,0,420,0,360,0C300,0,240,0,180,0C120,0,60,0,30,0L0,0Z"></path></svg>