<?xml version="1.0" standalone="no"?><svg xmlns="http://www.w3.org/2000/svg" viewBox="0 0 1440 320"><path fill="#8abbbc" fill-opacity="1" d="M0,192L30,165.3C60,139,120,85,180,80C240,75,300,117,360,117.3C420,117,480,75,540,69.3C600,64,660,96,720,96C780,96,840,64,900,48C960,32,1020,32,1080,48C1140,64,1200,96,1260,96C1320,96,1380,64,1410,48L1440,32L1440,320L1410,320C1380,320,1320,320,1260,320C1200,320,1140,320,1080,320C1020,320,960,320,900,320C840,320,780,320,720,320C660,320,600,320,540,320C480,320,420,320,360,320C300,320,240,320,180,320C120,320,60,320,30,320L0,320Z"></path></svg>